<svg xmlns="http://www.w3.org/2000/svg" width="57" height="15" viewBox="13.8918 12.1104 186.5 43.26" style="">
	<path d="m13.8918 33.7413v-21.6309h21.6309 21.6309v21.6309 21.6309h-21.6309-21.6309zm23.0567 13.7664c.9123-.108 1.6098-.2166 2.5574-.398.1826-.035.3817-.1002.4426-.145.0609-.0448.2489-.1145.4179-.1549 1.1271-.2694 2.8114-1.349 3.9896-2.5572.5479-.5619 1.512-1.9323 1.512-2.1493 0-.0654.0398-.1189.0884-.1189.0486 0 .1539-.1867.234-.4149.0801-.2282.2069-.5643.2818-.7468.639-1.557.6483-1.7092.6887-11.2597l.0374-8.8256-3.1823.0294-3.1823.0294-.059 8.3536c-.0402 5.6865-.0985 8.4773-.1825 8.7409-.3861 1.211-.7502 1.8349-1.4997 2.5702-1.389 1.3626-4.7533 1.5704-6.4685.3995-.8718-.5951-1.391-1.2944-1.9177-2.5825-.2292-.5605-.2577-1.3839-.3188-9.1834l-.065-8.2983h-3.2087-3.2087l-.0293 8.077c-.0294 8.1148.0381 9.9074.4086 10.8431.0482.1217.18.52.2928.8852.2168.7012.7067 1.745.8482 1.8072.0462.0203.084.0889.084.1524 0 .1967 1.0808 1.5852 1.5858 2.0372 1.157 1.0356 2.5887 1.9035 3.6145 2.1909.1521.0426.3762.1187.4979.169.5023.2077 1.2023.3451 2.3386.4589.6611.0662 1.2228.1406 1.2481.1653.0847.0825 1.1351.0462 2.1542-.0745zm24.7415-13.7664v-21.6309h21.6309 21.6309v21.6309 21.6309h-21.6309-21.6309zm14.1356 5.7061.0285-7.4605.5234.7112c.2879.3912.5863.777.6631.8575.0768.0804.1397.18.1398.2213.0001.0413.1245.2197.2766.3966.1521.1768.2765.3541.2765.3941 0 .0399.0891.1691.1979.2871.1089.118.7175.9364 1.3526 1.8188.6351.8824 1.2182 1.6701 1.2958 1.7505.0776.0804.1411.1831.1411.2281 0 .045.0888.1784.1973.2964s.6628.8618 1.2318 1.6529c.569.7911 1.0729 1.4809 1.1198 1.5328.0469.0519.4471-.3962.8895-.9958.4424-.5996 1.0944-1.4736 1.4491-1.9421.3546-.4685.6448-.9.6448-.9589 0-.0589.0413-.1236.0918-.1439.0505-.0203.5578-.6842 1.1274-1.4753.5696-.7911 1.2005-1.6427 1.4019-1.8923s.3663-.5069.3663-.5717c0-.0647.0373-.1343.083-.1546.0456-.0203.3942-.4567.7745-.9699l.6915-.933.0017 7.2951c.0009 4.0123.0417 7.3581.0906 7.4351.069.1088.7917.1335 3.2346.1106l3.1457-.0294.0281-13.0837.0281-13.0837h-3.085-3.085l-.6484.9681c-.5423.8097-1.8124 2.6589-2.413 3.5129-.3105.4415-1.5345 2.23-2.0067 2.9321-.266.3956-.8134 1.1922-1.2164 1.7703s-.9074 1.3177-1.1209 1.6435l-.3882.5924-.214-.3519c-.1177-.1935-.2627-.4103-.3222-.4818-.1493-.1792-1.4345-2.0239-2.2489-3.2279-.3705-.5477-.7132-1.0456-.7616-1.1064-.0484-.0608-.5322-.7579-1.0751-1.549-.5429-.7911-1.0911-1.5877-1.2182-1.7703s-.6372-.917-1.1335-1.632l-.9023-1.3001h-3.0218-3.0218v13.0376c0 7.1707.034 13.0715.0755 13.113s1.473.0622 3.181.0461l3.1056-.0294zm33.6627-5.7061v-21.6309h21.6309 21.6309v21.6309 21.6309h-21.6309-21.6309zm23.8088 13.76c.1025-.0525.3124-.0955.4664-.0955.3432 0 1.1432-.2563 1.9228-.6158.3211-.1481.6323-.2693.6915-.2693.0592 0 .1076-.0376.1076-.0836s.1505-.1502.3344-.2317c.1839-.0814.3955-.2063.4702-.2774.0747-.0712.3913-.3304.7034-.5761 1.5752-1.2396 2.7767-3.2631 3.248-5.4699.2399-1.1236.0538-3.7408-.3424-4.813-.8632-2.3364-2.4409-4.0497-4.6942-5.0978-.9815-.4566-1.2035-.5251-2.7005-.8334-.5746-.1184-1.0626-.2331-1.0845-.255-.0509-.0509 1.0999-1.8786 1.2139-1.9277.047-.0203.0855-.0903.0855-.1555 0-.0652.1162-.2727.2582-.461.142-.1883.401-.5913.5756-.8956s.3446-.5781.378-.6085c.0333-.0304.1565-.2296.2736-.4426.1171-.213.2416-.4121.2766-.4426.035-.0304.1135-.1394.1743-.2421.0609-.1027.4502-.7176.8651-1.3663.415-.6487.7277-1.2493.695-1.3346-.0493-.1284-.6503-.1551-3.4929-.1551-3.1407 0-3.4502.0167-3.6298.1964-.108.108-1.2407 1.8505-2.5172 3.8722-1.2764 2.0217-2.5088 3.9623-2.7385 4.3124-.2298.3501-.4472.7237-.4831.8302-.036.1065-.1036.1936-.1502.1936-.0467 0-.1141.0871-.1499.1936-.0662.1972-.299.5913-.4085.6915-.1665.1524-1.7572 2.7969-2.0299 3.3746-.1724.3651-.3613.7563-.4199.8693-.1879.3623-.3351 2.3031-.2661 3.5083.0626 1.0932.2665 2.1916.502 2.7036.056.1217.1897.4204.2971.6639s.2228.4675.2564.4979c.0336.0304.1563.2261.2727.4347.4924.8829 1.8653 2.2381 2.9562 2.918 1.4734.9183 2.8605 1.3707 4.6327 1.5109 1.1099.0878 3.1847.015 3.4503-.1211zm-2.8971-5.7043c-.6867-.0576-1.7615-.5879-2.197-1.0839-.3634-.4138-.6575-.9847-.8884-1.7241-.3565-1.1418.1593-2.7596 1.1602-3.6383.7606-.6679 1.2915-.8349 2.6531-.8349 1.1284 0 1.2754.0251 1.8497.3156.7128.3607 1.3948 1.0481 1.7319 1.7457.1815.3757.2327.6986.237 1.4959.005.8906-.0321 1.0936-.2979 1.6364-.7877 1.6088-2.1249 2.2658-4.2485 2.0876zm26.7758-8.0557v-21.6309h21.6309 21.6309v21.6309 21.6309h-21.6309-21.6309zm16.9285 9.5209v-3.5904l3.6789-.0482c2.0234-.0265 3.9528-.0992 4.2875-.1616.8127-.1514 1.5548-.3367 1.8256-.4559.1217-.0536.4184-.1844.6593-.2908.661-.2918 1.4845-.8451 2.1539-1.4469.6702-.6026 1.8892-2.0969 1.8892-2.3159 0-.078.0413-.1583.0918-.1786.1283-.0516.6284-1.1438.8274-1.8072.35-1.167.4258-1.7865.3787-3.098-.0571-1.5904-.1827-2.2174-.6876-3.43-.3755-.902-.4484-1.0511-.5138-1.0511-.0389 0-.1-.0871-.1357-.1936-.0649-.1932-.2961-.5868-.4062-.6915-.032-.0304-.2229-.2669-.4242-.5256-.2013-.2586-.4279-.4702-.5034-.4702-.0756 0-.2581-.1288-.4056-.2862-.4277-.4563-1.6487-1.3061-2.3705-1.6498-.9004-.4288-.9901-.4598-1.9028-.6576-.6741-.1461-1.8673-.1726-7.7727-.1726h-6.9764v13.056 13.056h3.1533 3.1534zm0-13.1722v-3.7066l3.2917.0017c2.3827.0012 3.3986.0405 3.6789.1424 1.0382.3772 1.6329.9036 2.1576 1.91.302.5793.3319.7331.3319 1.7062 0 .9564-.0334 1.1356-.3155 1.6935-.349.6902-.7053 1.0923-1.2888 1.4546-.7414.4603-1.1446.5048-4.5769.5048h-3.2788z" fill="#ff0000"/>
</svg>
