<svg xmlns="http://www.w3.org/2000/svg" style="margin-left:20px" width="91" height="15" fill="#ffffff">
                    <path d="M11.813 0H7.874L0 7.875v3.188h7.875V15h3.938V7.875H3.936L11.814 0zM13.5 3.938L17.438 0H13.5v3.938z"/>
                    <path d="M21.375 3.938V0h-3.938v3.938L13.5 7.874v3.938h3.938V7.874l3.937-3.938z"/>
                    <path d="M21.375 7.875l-3.938 3.938h3.938V7.874zm8.063 2.588l1.05-8.438h1.687l3.9 5.475.675-5.475h1.95l-1.2 8.438h-1.538l-3.75-5.513-.825 5.513h-1.95zM45 3.75h-2.775v1.612h2.663l-.225 1.65H42l-.225 1.875h2.813v1.65h-5.063l1.05-8.512h4.65L45 3.75zm4.688 0l-.938 6.713H46.8l.938-6.713H45.9l.225-1.725h5.625l-.225 1.725h-1.837zm4.2-1.725L55.013 7.5l2.474-5.475h1.35L60 7.5l2.438-5.475H64.5l-3.75 8.438h-1.688l-1.124-5.138-2.4 5.138h-1.65L51.9 2.024h1.988zm18.712.9a4.05 4.05 0 011.2 3 5.025 5.025 0 01-1.313 3.45A4.651 4.651 0 0169 10.688a4.314 4.314 0 01-3.225-1.238 4.087 4.087 0 01-1.2-2.925 4.65 4.65 0 011.388-3.413 4.839 4.839 0 013.487-1.275 4.425 4.425 0 013.15 1.088zm-5.25 1.5a2.887 2.887 0 00-.75 1.95 2.476 2.476 0 00.675 1.8 2.437 2.437 0 001.837.675 2.513 2.513 0 001.913-.713c.518-.56.8-1.299.787-2.062a2.437 2.437 0 00-.562-1.8 2.513 2.513 0 00-1.875-.525 2.737 2.737 0 00-1.875.675h-.15zm11.062-2.4a2.812 2.812 0 012.25.75 2.4 2.4 0 01.6 1.725 2.7 2.7 0 01-.674 1.875 3.069 3.069 0 01-1.35.675l2.174 3.413h-2.287L77.1 7.125l-.412 3.338h-1.95l1.05-8.438h2.624zm-1.162 3.75h.487c.398.022.792-.083 1.126-.3a1.2 1.2 0 00.45-.975.937.937 0 00-.563-.75 1.875 1.875 0 00-1.088-.225H77.4l-.15 2.25zm7.763-.225l3.075-3.525h2.325l-3.75 4.088L90 10.463h-2.475l-2.55-3.75-.487 3.75H82.5l.975-8.438h1.95l-.412 3.525z"/>
                </svg>
